<?xml version="1.0" standalone="no"?>
<!DOCTYPE svg PUBLIC "-//W3C//DTD SVG 20010904//EN"
 "http://www.w3.org/TR/2001/REC-SVG-20010904/DTD/svg10.dtd">
<svg version="1.0" xmlns="http://www.w3.org/2000/svg"
 width="266.000000pt" height="300.000000pt" viewBox="0 0 266.000000 300.000000"
 preserveAspectRatio="xMidYMid meet">
<metadata>
Created by potrace 1.11, written by Peter Selinger 2001-2013
</metadata>
<g transform="translate(0.000000,300.000000) scale(0.100000,-0.100000)"
fill="#000000" stroke="none">
<path d="M595 2880 c-11 -4 -25 -5 -32 -3 -7 3 -26 -5 -43 -17 -16 -12 -30
-19 -30 -16 0 3 -22 -6 -50 -20 -27 -14 -50 -29 -50 -35 0 -5 -6 -9 -13 -9
-22 0 -65 -59 -109 -146 -22 -46 -49 -92 -59 -102 -13 -15 -17 -36 -17 -83 0
-35 -3 -85 -7 -110 -7 -46 13 -109 35 -109 5 0 9 -8 8 -17 -3 -37 2 -53 17
-53 8 0 15 -5 15 -11 0 -6 -7 -9 -15 -5 -8 3 -15 1 -15 -4 0 -6 5 -10 10 -10
6 0 10 -7 10 -15 0 -8 5 -15 10 -15 6 0 10 -9 10 -21 0 -15 4 -19 16 -15 14 5
15 4 5 -8 -10 -12 -9 -18 6 -33 23 -23 73 -55 73 -47 0 3 12 -9 28 -27 15 -19
34 -41 42 -49 8 -9 24 -29 35 -44 11 -16 29 -38 40 -50 11 -12 19 -25 17 -29
-1 -5 1 -6 6 -3 10 6 52 -38 52 -55 0 -6 7 -9 15 -6 8 4 22 -4 32 -17 15 -18
26 -22 55 -18 20 2 53 -1 73 -8 31 -10 39 -10 46 1 5 8 7 20 4 27 -5 15 7 16
22 1 8 -8 9 1 3 30 -4 25 -3 44 4 52 8 9 7 10 -6 6 -9 -3 -18 -1 -20 5 -3 8
-11 7 -27 -2 -13 -6 -21 -7 -17 -2 8 14 -4 43 -15 36 -5 -3 -7 -9 -4 -14 3 -4
-2 -10 -10 -14 -18 -6 -30 10 -14 20 8 4 7 9 -2 15 -10 6 -11 9 -1 9 6 0 12
11 12 25 0 25 -19 49 -56 72 -16 10 -12 12 31 13 51 2 51 4 3 14 -16 4 -28 11
-28 17 0 6 5 7 10 4 6 -3 10 -2 10 3 0 5 12 9 28 9 15 0 32 2 37 3 29 7 57 -1
52 -14 -7 -16 16 -12 42 8 12 9 13 7 8 -7 -4 -10 -3 -27 3 -36 11 -22 47 -34
53 -17 2 6 8 7 13 3 10 -9 -16 -28 -28 -21 -4 3 -4 -6 2 -20 11 -30 5 -33 -18
-8 -10 10 -16 16 -15 13 2 -2 -2 -10 -7 -16 -8 -9 -2 -14 21 -19 23 -4 30 -10
25 -21 -9 -25 31 1 51 33 21 33 161 192 186 210 9 7 17 19 17 27 0 7 5 15 10
17 6 2 12 15 14 29 1 13 6 30 10 37 4 7 4 12 0 12 -4 0 5 13 20 29 27 28 27
31 22 112 -7 131 -15 184 -26 187 -7 3 -7 9 1 18 9 11 5 21 -20 49 -17 20 -31
43 -31 51 0 8 -4 13 -9 10 -5 -3 -12 1 -15 10 -3 8 -2 12 4 9 6 -3 10 1 10 10
0 9 -4 14 -8 11 -4 -2 -13 8 -20 23 -7 16 -30 37 -57 50 -25 12 -45 27 -45 32
0 6 -4 7 -10 4 -5 -3 -10 1 -10 9 0 9 -8 16 -19 16 -11 0 -22 4 -26 10 -3 5
-12 7 -20 3 -8 -3 -15 -1 -15 4 0 22 -49 32 -107 23 -47 -7 -188 -7 -188 0 0
6 -33 6 -50 0z m301 -429 c-7 -10 22 -37 30 -28 4 3 18 -8 31 -24 14 -16 23
-33 19 -36 -3 -3 -1 -12 5 -20 6 -7 9 -13 6 -13 -3 0 -1 -17 4 -37 10 -40 19
-133 20 -193 1 -45 -31 -130 -54 -144 -15 -9 -21 -6 -37 14 -11 14 -20 36 -19
50 0 23 1 23 13 8 22 -29 24 -10 4 31 -21 43 -55 78 -64 68 -4 -4 5 -22 20
-41 27 -36 26 -69 -1 -59 -11 5 -14 3 -9 -6 6 -9 1 -12 -15 -9 -13 1 -24 10
-25 18 -2 36 -5 41 -16 37 -7 -2 -25 0 -41 4 -16 5 -25 4 -22 -2 4 -5 1 -9 -4
-9 -13 0 -14 2 -16 125 -3 119 -14 155 -49 155 -47 0 -34 15 15 17 l49 1 0
-36 0 -37 19 41 c24 52 38 61 57 38 14 -18 15 -17 10 8 -6 25 -4 26 21 22 16
-2 34 -7 40 -9 17 -6 12 17 -7 31 -12 10 -12 14 -1 28 14 17 26 22 17 7z"/>
<path d="M1844 1636 c-17 -26 -19 -37 -10 -47 8 -9 8 -10 -4 -4 -12 6 -12 5
-3 -5 6 -7 9 -18 7 -25 -3 -7 -1 -16 5 -20 16 -9 -7 -48 -24 -41 -8 3 -15 0
-17 -6 -2 -5 -25 -12 -51 -15 -46 -5 -53 -1 -48 30 0 4 -4 7 -9 7 -13 0 -13
-6 0 -31 7 -13 7 -19 0 -19 -5 0 -10 4 -10 9 0 5 -11 23 -25 39 -22 26 -29 29
-58 22 -66 -17 -82 -24 -104 -44 -18 -17 -21 -27 -15 -51 8 -27 13 -31 58 -36
27 -3 57 -9 67 -14 10 -4 23 -2 32 5 12 10 15 10 15 0 0 -8 3 -10 7 -7 3 4 -4
18 -17 32 -22 23 -18 31 13 26 4 0 7 3 7 8 0 10 -43 28 -47 20 -3 -5 -32 34
-33 44 -1 19 39 3 69 -27 37 -38 33 -38 181 -11 41 8 101 17 133 21 59 7 68
15 42 40 -11 12 -12 20 -5 35 9 16 7 19 -10 19 -11 0 -20 -5 -20 -11 0 -6 -9
-9 -19 -6 -22 5 -32 0 -49 -30 -10 -20 -10 -23 5 -21 10 1 36 0 58 -2 l40 -3
-35 -6 c-19 -4 -38 -2 -41 2 -4 5 -10 4 -13 -2 -4 -6 -13 -11 -20 -11 -15 0
-17 30 -4 47 6 7 3 15 -9 22 -17 10 -17 10 0 11 12 0 16 4 11 13 -6 9 -4 9 8
-1 14 -11 23 -10 59 6 l42 20 -34 8 c-19 4 -36 8 -39 9 -3 0 -11 4 -18 8 -7 5
-12 5 -11 0 1 -4 1 -15 0 -23 -1 -12 -4 -11 -12 3 -6 9 -15 14 -21 11 -6 -4
-8 -1 -6 7 3 8 11 13 17 12 6 -2 11 2 11 7 0 21 -26 8 -46 -24z"/>
<path d="M1640 790 c-19 -5 -36 -13 -38 -19 -2 -5 -10 -7 -18 -4 -8 3 -14 -1
-14 -8 0 -12 -2 -12 -9 0 -7 11 -13 11 -32 0 -13 -7 -34 -14 -46 -15 -12 -1
-39 -10 -60 -19 -66 -30 -97 -43 -121 -50 -44 -13 -97 -50 -100 -70 l-2 -20
11 20 c13 21 29 35 42 35 5 0 6 -4 3 -9 -3 -4 4 -17 16 -27 12 -11 18 -13 14
-6 -4 7 -1 12 8 12 9 0 16 5 16 12 0 15 15 0 15 -15 1 -7 -4 -15 -10 -19 -7
-5 -6 -8 1 -8 6 0 17 7 24 15 9 11 17 12 32 4 16 -9 20 -7 25 10 6 25 19 27
31 5 7 -13 13 -14 29 -5 11 5 23 7 27 4 3 -3 6 -1 6 5 0 7 5 12 10 12 19 0 10
-21 -12 -31 -19 -8 -17 -9 12 -4 20 3 45 16 57 30 12 14 25 20 28 15 3 -6 11
-10 16 -10 20 0 -16 26 -38 27 -23 2 -32 -12 -13 -19 6 -2 1 -9 -10 -16 -12
-7 -20 -8 -20 -2 0 5 5 10 11 10 5 0 7 5 3 11 -4 8 -9 7 -15 -2 -7 -12 -9 -11
-10 1 -1 8 -1 19 0 23 1 5 -3 6 -8 3 -5 -3 -16 -3 -25 0 -13 5 -14 9 -5 20 10
12 9 13 -5 8 -9 -3 -16 -11 -16 -18 0 -7 -3 -6 -9 2 -9 14 -61 7 -61 -9 0 -9
10 -11 57 -13 12 -1 24 -4 28 -8 4 -4 14 -4 23 -1 14 4 13 1 -2 -11 -10 -8
-24 -12 -30 -8 -16 10 -117 11 -111 1 3 -4 -7 -2 -22 6 -17 9 -31 11 -38 5 -7
-6 -15 -7 -18 -3 -10 9 102 54 143 58 33 2 50 7 95 25 80 32 84 33 110 16 23
-15 27 -15 56 0 25 12 29 18 19 27 -10 9 -14 9 -17 0 -3 -7 -9 -13 -14 -13 -6
0 -7 5 -4 10 4 7 -3 9 -22 5 -23 -4 -24 -4 -7 4 11 5 35 8 51 7 22 -1 29 2 26
11 -6 14 -12 15 -63 3z"/>
<path d="M1898 542 c-65 -29 -74 -31 -127 -30 -43 1 -49 3 -30 10 13 5 34 7
47 5 12 -2 25 0 28 4 9 15 -78 10 -95 -5 -9 -7 -38 -16 -66 -19 -27 -3 -76
-17 -109 -31 -32 -14 -65 -26 -73 -26 -13 0 -13 -3 -3 -15 11 -13 7 -15 -25
-15 -25 0 -35 4 -32 13 2 6 11 11 20 9 8 -1 18 6 21 16 4 11 18 24 33 31 21
10 24 14 13 21 -9 5 -17 5 -20 -1 -4 -5 -17 -12 -31 -14 -13 -3 -39 -8 -56
-11 -18 -3 -33 -10 -33 -14 0 -5 -9 -6 -20 -3 -12 3 -29 -2 -40 -12 -11 -10
-24 -14 -32 -10 -7 4 -6 0 3 -9 9 -10 22 -18 30 -19 8 -2 20 -6 27 -10 7 -5
22 -5 35 -2 l22 7 -23 -17 c-12 -9 -30 -16 -40 -15 -9 1 -35 2 -57 3 -22 1
-45 5 -51 9 -7 4 -23 -2 -38 -13 -14 -11 -30 -18 -35 -14 -6 3 -13 -1 -18 -9
-4 -8 -23 -18 -42 -21 -18 -3 -47 -13 -64 -21 -27 -15 -29 -15 -24 0 6 14 3
15 -14 6 -11 -6 -17 -15 -14 -21 4 -5 0 -9 -9 -9 -8 0 -36 -9 -62 -21 -33 -14
-44 -23 -35 -28 10 -6 9 -10 -3 -14 -9 -4 -16 -2 -16 3 0 6 -5 10 -11 10 -6 0
-9 -6 -6 -14 4 -9 -3 -16 -18 -19 -16 -3 -22 0 -18 7 4 6 -3 3 -14 -6 -11 -10
-29 -18 -41 -18 -11 0 -24 -5 -27 -10 -4 -6 -10 -8 -15 -5 -5 3 -32 -9 -60
-26 -28 -17 -54 -29 -57 -26 -3 4 -20 -5 -38 -18 -17 -14 -39 -25 -48 -25 -9
0 -19 -5 -22 -10 -6 -10 -84 -54 -97 -55 -3 0 -10 -3 -14 -8 -4 -4 38 -7 94
-7 61 0 102 4 102 10 0 6 5 10 11 10 5 0 7 -6 3 -13 -6 -9 31 19 56 43 3 3 17
11 33 19 24 13 40 35 20 28 -5 -1 -9 3 -10 8 -1 6 5 9 12 9 8 -1 12 2 9 7 -3
5 3 9 13 9 11 0 43 16 73 35 65 41 82 44 50 10 -12 -13 -25 -24 -29 -23 -3 0
-13 0 -21 -1 -13 -1 -13 -2 0 -11 21 -13 23 -13 49 11 22 21 23 21 39 3 16
-17 16 -17 -2 -3 -18 13 -19 12 -13 -4 4 -11 3 -16 -3 -12 -6 3 -10 0 -10 -7
0 -10 -2 -10 -9 1 -6 9 -11 10 -15 2 -4 -6 4 -15 20 -22 25 -9 31 -7 61 25 34
36 43 53 21 40 -7 -4 1 7 19 26 30 31 31 34 15 47 -15 13 -15 13 5 4 28 -14
60 -14 69 0 5 9 -1 10 -22 5 -16 -4 -26 -4 -21 0 14 14 81 37 109 37 15 0 25
3 23 7 -2 4 6 5 19 3 13 -3 39 2 57 10 94 40 109 42 109 14 0 -8 -4 -7 -9 2
-8 12 -11 12 -24 -1 -12 -12 -13 -18 -4 -27 9 -9 4 -10 -21 -5 -22 5 -32 3
-32 -6 0 -7 6 -10 13 -7 16 6 15 -39 -2 -56 -10 -9 -11 -8 -5 8 6 18 5 18 -16
-3 -12 -13 -19 -26 -15 -30 4 -4 10 -2 12 4 4 12 40 8 59 -7 6 -5 15 -5 20 -1
5 4 1 -3 -9 -14 -11 -14 -25 -20 -38 -17 -10 3 -25 1 -32 -3 -21 -16 -52 -10
-49 9 2 9 -2 17 -8 17 -5 0 -11 -4 -11 -10 -3 -20 -4 -25 -11 -36 -11 -16 3
-26 19 -13 9 9 13 8 13 0 0 -6 -4 -11 -9 -11 -5 0 -18 -8 -27 -18 -15 -15 -17
-15 -12 -1 7 17 -27 39 -57 39 -8 0 -15 5 -15 10 0 6 -5 10 -11 10 -8 0 -8 -5
1 -15 7 -8 22 -15 34 -15 19 -1 18 -2 -7 -18 -15 -9 -26 -21 -24 -27 4 -12
-51 -37 -64 -29 -5 3 -9 12 -9 20 0 8 5 12 10 9 6 -3 10 -1 10 4 0 6 -4 11
-10 11 -6 0 -6 9 0 26 13 32 13 31 -5 31 -8 0 -13 -2 -11 -5 2 -2 0 -17 -6
-34 -8 -22 -13 -26 -19 -16 -6 9 -9 7 -9 -9 0 -21 -5 -23 -49 -23 -34 0 -51
-4 -55 -15 -3 -8 -1 -15 4 -15 6 0 10 4 10 8 0 4 8 8 19 8 11 0 17 -5 14 -13
-4 -9 0 -11 13 -6 12 5 15 3 9 -6 -11 -19 13 -31 64 -31 29 0 48 5 56 16 6 10
25 18 41 20 16 2 30 8 32 14 2 5 8 8 13 4 5 -3 9 2 9 11 0 23 23 14 35 -13 13
-28 18 -28 93 8 58 27 62 31 48 45 -14 14 -13 19 6 50 22 32 53 45 114 45 24
0 41 -29 23 -40 -7 -5 -8 -10 -1 -14 18 -11 95 37 112 69 17 34 30 46 42 39 4
-3 8 -1 8 3 0 5 9 14 20 21 16 9 26 10 41 1 14 -7 19 -7 15 -1 -7 12 28 10 57
-2 19 -9 71 19 62 34 -3 4 1 11 7 14 11 5 11 7 0 12 -6 3 -10 10 -6 15 3 5 -6
13 -20 19 -14 5 -26 11 -26 12 0 2 19 3 43 2 23 0 47 2 52 5 12 7 18 8 50 10
31 1 33 21 3 22 l-23 0 21 9 c12 5 25 13 29 19 3 6 16 16 28 22 19 9 19 8 -3
-11 -21 -19 -22 -21 -5 -16 19 6 19 5 3 -8 -26 -19 -22 -27 10 -20 52 11 59
15 39 23 -15 5 -10 11 25 30 40 21 41 21 16 1 -16 -12 -25 -27 -21 -35 6 -17
68 -21 78 -5 4 6 10 8 15 5 5 -3 12 0 15 6 5 7 -7 9 -39 6 -26 -3 -44 -1 -40
4 3 5 12 9 20 9 8 0 14 5 14 10 0 14 49 33 78 31 13 0 31 4 40 10 13 7 1 8
-43 4 -68 -8 -232 -14 -197 -8 13 3 32 13 42 23 17 17 17 18 -5 23 -13 2 -39
-3 -57 -11z m-399 -183 c-8 -5 8 -7 41 -7 31 1 64 -4 75 -10 11 -6 15 -12 9
-12 -6 0 -26 -13 -44 -30 -18 -16 -39 -30 -46 -30 -7 0 -14 -6 -16 -12 -3 -8
-18 -12 -41 -10 -25 3 -41 -2 -55 -16 -12 -12 -24 -16 -29 -11 -6 6 -27 4 -54
-4 -61 -19 -144 5 -96 27 9 5 9 7 -1 12 -13 6 -7 24 9 24 6 0 7 -4 4 -10 -8
-13 11 -13 36 1 11 6 29 12 40 14 11 2 33 11 50 19 20 10 29 11 29 3 0 -9 2
-9 8 0 4 6 14 11 22 11 37 -2 61 3 55 12 -3 6 -17 10 -30 10 -13 0 -27 5 -30
10 -4 6 -11 7 -17 4 -6 -4 -9 -3 -5 2 3 5 26 10 52 10 30 1 43 -1 34 -7z"/>
</g>
</svg>
